<svg xmlns="http://www.w3.org/2000/svg" width="1200" height="630" viewBox="0 0 1200 630">
  <rect width="1200" height="630" fill="#0d1117"/>
  <g opacity="0.28">
    <path d="M0 80h1200M0 160h1200M0 240h1200M0 320h1200M0 400h1200M0 480h1200M0 560h1200M120 0v630M240 0v630M360 0v630M480 0v630M600 0v630M720 0v630M840 0v630M960 0v630M1080 0v630" stroke="#263241" stroke-width="1"/>
  </g>
  <circle cx="960" cy="160" r="210" fill="#17cbb3" opacity="0.12"/>
  <text x="72" y="128" fill="#17cbb3" font-family="monospace" font-size="26" letter-spacing="3">FULL STACK WEB DEVELOPER / BANDUNG</text>
  <text x="72" y="320" fill="#e6edf3" font-family="Arial, Helvetica, sans-serif" font-size="88" font-weight="700" letter-spacing="-5">Fauzan Zhahir</text>
  <text x="72" y="418" fill="#e6edf3" font-family="Arial, Helvetica, sans-serif" font-size="88" font-weight="700" letter-spacing="-5">Arrafi</text>
  <text x="72" y="500" fill="#8b98a5" font-family="Arial, Helvetica, sans-serif" font-size="30">Laravel · Livewire · Tailwind CSS · MySQL</text>
  <rect x="72" y="552" width="96" height="8" fill="#17cbb3"/>
</svg>
